<?xml version="1.0" standalone="no"?><!DOCTYPE svg PUBLIC "-//W3C//DTD SVG 1.1//EN" "http://www.w3.org/Graphics/SVG/1.1/DTD/svg11.dtd"><svg class="icon" width="16px" height="16.00px" viewBox="0 0 1024 1024" version="1.1" xmlns="http://www.w3.org/2000/svg"><path d="M569.3031 251.650437l-50.909483 0c-8.53028 0-15.462157 6.907317-15.462157 15.433504l0 52.429093c0 8.522094 6.931876 15.429411 15.462157 15.429411l50.909483 0c8.538467 0 15.465227-6.907317 15.465227-15.429411l0-52.429093C584.760141 258.557754 577.841567 251.650437 569.3031 251.650437L569.3031 251.650437 569.3031 251.650437zM569.3031 418.445254l-50.909483 0c-8.53028 0-15.462157 6.979972-15.462157 15.597233l0 51.984978c0 8.622378 6.931876 15.597233 15.462157 15.597233l50.909483 0c8.538467 0 15.465227-6.974855 15.465227-15.597233l0-51.984978C584.760141 425.425226 577.841567 418.445254 569.3031 418.445254L569.3031 418.445254 569.3031 418.445254zM900.953569 876.55488l-50.133817 0L850.819752 640.73499c0-42.475394-37.566594-76.915787-79.877235-76.915787l-42.963511 0L727.979006 176.549995c0-39.21821-31.670304-71.00824-70.719668-71.00824L246.449995 105.541755c-39.053458 0-70.723761 31.798217-70.723761 71.00824l0 700.004885-52.668547 0c-16.280802 0-29.472242 5.428639-29.472242 21.776979l0-0.347924c0 16.341177 13.19144 20.47431 29.472242 20.47431L900.953569 918.458245c16.269545 0 29.460985-6.731308 29.460985-23.072485l0 1.63115C930.410462 880.679827 917.223115 876.55488 900.953569 876.55488L900.953569 876.55488 900.953569 876.55488zM666.029072 865.430518c0 6.544043-5.28026 11.831466-11.779278 11.831466l-78.199013 0c-6.504134 0-11.768021-5.287423-11.768021-11.831466l0-102.267175c0-6.547113 5.276167-11.839653 11.768021-11.839653l78.190827 0c6.507204 0 11.776208 5.29254 11.776208 11.839653l0 102.267175L666.029072 865.430518 666.029072 865.430518zM666.029072 698.18033c0 6.53074-5.28026 11.831466-11.779278 11.831466l-78.199013 0c-6.504134 0-11.768021-5.300726-11.768021-11.831466l0-79.886445c0-6.547113 5.276167-12.483312 11.768021-12.483312l78.190827 0c6.507204 0 11.776208 5.296633 11.776208 11.835559l0 80.534198L666.029072 698.18033 666.029072 698.18033zM687.019129 563.819203l-89.183182 0c-42.315758 0-74.057693 34.440393-74.057693 76.915787l0 235.81989L216.537731 876.55488l0-682.033581c0-26.142403 21.109784-47.332005 47.136553-47.332005l376.188848 0c26.046213 0 47.143717 21.189601 47.143717 47.332005l0 369.297904L687.019129 563.819203 687.019129 563.819203zM809.863968 865.430518c0 6.544043-5.276167 11.831466-11.788487 11.831466l-78.822207 0c-6.519484 0-11.788487-5.287423-11.788487-11.831466l0-102.267175c0-6.547113 5.27719-11.839653 11.788487-11.839653l78.822207 0c6.523577 0 11.788487 5.29254 11.788487 11.839653L809.863968 865.430518 809.863968 865.430518 809.863968 865.430518zM809.863968 698.18033c0 6.53074-5.276167 11.831466-11.788487 11.831466l-78.822207 0c-6.519484 0-11.788487-5.300726-11.788487-11.831466l0-80.534198c0-6.538927 5.27719-11.835559 11.788487-11.835559l78.822207 0c6.523577 0 11.788487 5.296633 11.788487 11.835559L809.863968 698.18033 809.863968 698.18033 809.863968 698.18033zM385.244085 418.445254l-51.28606 0c-8.478092 0-15.364943 6.979972-15.364943 15.597233l0 51.984978c0 8.622378 6.886851 15.597233 15.364943 15.597233l51.28606 0c8.478092 0 15.364943-6.974855 15.364943-15.597233l0-51.984978C400.609027 425.425226 393.722176 418.445254 385.244085 418.445254L385.244085 418.445254 385.244085 418.445254zM385.244085 251.650437l-51.28606 0c-8.478092 0-15.364943 6.907317-15.364943 15.433504l0 52.429093c0 8.522094 6.886851 15.429411 15.364943 15.429411l51.28606 0c8.478092 0 15.364943-6.907317 15.364943-15.429411l0-52.429093C400.609027 258.557754 393.722176 251.650437 385.244085 251.650437L385.244085 251.650437 385.244085 251.650437zM385.244085 585.316819l-51.28606 0c-8.478092 0-15.364943 6.907317-15.364943 15.429411l0 52.42807c0 8.526187 6.886851 15.433504 15.364943 15.433504l51.28606 0c8.478092 0 15.364943-6.907317 15.364943-15.433504l0-52.42807C400.609027 592.224136 393.722176 585.316819 385.244085 585.316819L385.244085 585.316819 385.244085 585.316819zM385.244085 585.316819" /></svg>