<?xml version="1.0" standalone="no"?><!DOCTYPE svg PUBLIC "-//W3C//DTD SVG 1.1//EN" "http://www.w3.org/Graphics/SVG/1.1/DTD/svg11.dtd"><svg class="icon" width="16px" height="16.00px" viewBox="0 0 1024 1024" version="1.1" xmlns="http://www.w3.org/2000/svg"><path d="M776.5504 394.6496H247.4496c-36.5056 0-66.0992 29.6448-66.0992 66.1504v401.0496c0 36.5568 29.5936 66.1504 66.0992 66.1504h529.1008c36.5056 0 66.0992-29.5936 66.0992-66.1504V460.8c0-36.5056-29.5936-66.1504-66.0992-66.1504zM247.4496 458.6496h529.1008c1.1776 0 2.0992 0.9728 2.0992 2.1504v401.0496a2.1504 2.1504 0 0 1-2.0992 2.1504H247.4496a2.1504 2.1504 0 0 1-2.0992-2.1504V460.8c0-1.1776 0.9216-2.1504 2.0992-2.1504z" fill="#333333" /><path d="M512 96a202.6496 202.6496 0 0 0-202.6496 202.6496v160h405.2992V298.6496A202.6496 202.6496 0 0 0 512 96z m8.448 64.256a138.6496 138.6496 0 0 1 130.2016 138.3936v96H373.2992V298.6496A138.6496 138.6496 0 0 1 512 160l8.448 0.256zM512 544c16.0768 0 29.3888 11.8272 31.6416 27.2896l0.3584 4.7104v149.3504a32 32 0 0 1-63.6416 4.7104l-0.3584-4.7104V576c0-17.664 14.336-32 32-32z" fill="#333333" /><path d="M0 0h1024v1024H0z" fill="#333333" fill-opacity="0" /></svg>