<?xml version="1.0" standalone="no"?><!DOCTYPE svg PUBLIC "-//W3C//DTD SVG 1.1//EN" "http://www.w3.org/Graphics/SVG/1.1/DTD/svg11.dtd"><svg class="icon" width="16px" height="16.00px" viewBox="0 0 1024 1024" version="1.1" xmlns="http://www.w3.org/2000/svg"><path d="M512 1295.582609"  /><path d="M636.66087 569.878261c102.4-46.747826 173.634783-149.147826 173.634783-269.356522 0-164.730435-133.565217-296.069565-296.069565-296.069565-164.730435 0-296.069565 133.565217-296.069565 296.069565 0 120.208696 71.234783 222.608696 173.634783 269.356522C200.347826 623.304348 64.556522 794.713043 64.556522 999.513043c0 13.356522 8.904348 22.26087 22.26087 22.26087s22.26087-8.904348 22.26087-22.26087c0-220.382609 178.086957-400.695652 398.469565-402.921739 2.226087 0 2.226087 0 4.452174 0s2.226087 0 4.452174 0c220.382609 2.226087 398.469565 182.53913 398.469565 402.921739 0 13.356522 8.904348 22.26087 22.26087 22.26087s22.26087-8.904348 22.26087-22.26087C959.443478 794.713043 823.652174 623.304348 636.66087 569.878261zM260.452174 298.295652c0-140.243478 113.530435-251.547826 251.547826-251.547826s251.547826 113.530435 251.547826 251.547826c0 138.017391-111.304348 249.321739-247.095652 251.547826-2.226087 0-2.226087 0-4.452174 0s-2.226087 0-4.452174 0C369.530435 549.843478 260.452174 436.313043 260.452174 298.295652z"  /></svg>